<svg xmlns="http://www.w3.org/2000/svg" width="750" height="1050" viewBox="0 0 750 1050"><defs>
    <linearGradient id="paper" x1="0" y1="0" x2="1" y2="1"><stop stop-color="#fffdf5"/><stop offset=".55" stop-color="#f7f0dd"/><stop offset="1" stop-color="#eee2c7"/></linearGradient>
    <linearGradient id="gold" x1="0" y1="0" x2="1" y2="1"><stop stop-color="#8a5a12"/><stop offset=".45" stop-color="#f0c75e"/><stop offset="1" stop-color="#9d6818"/></linearGradient>
    <pattern id="papergrain" width="37" height="37" patternUnits="userSpaceOnUse"><circle cx="4" cy="7" r="1" fill="#6e5830" opacity=".035"/><circle cx="25" cy="29" r=".8" fill="#6e5830" opacity=".03"/></pattern>
    <filter id="shadow" x="-30%" y="-30%" width="160%" height="160%"><feDropShadow dx="0" dy="5" stdDeviation="6" flood-color="#33240f" flood-opacity=".22"/></filter>
    <clipPath id="topcourt"><rect x="120" y="160" width="510" height="365" rx="15"/></clipPath>
    <clipPath id="bottomcourt"><rect x="120" y="525" width="510" height="365" rx="15"/></clipPath>
    </defs><rect width="750" height="1050" rx="48" fill="#d8ccb2"/>
    <rect x="8" y="8" width="734" height="1034" rx="43" fill="url(#paper)" stroke="#1b2741" stroke-width="4"/>
    <rect x="18" y="18" width="714" height="1014" rx="35" fill="url(#papergrain)" stroke="url(#gold)" stroke-width="2"/>
    <rect x="30" y="30" width="690" height="990" rx="27" fill="none" stroke="#1b2741" stroke-width="1.5" opacity=".48"/><circle cx="53" cy="53" r="3" fill="#9d6818" opacity=".32"/><circle cx="697" cy="53" r="3" fill="#9d6818" opacity=".32"/><circle cx="53" cy="997" r="3" fill="#9d6818" opacity=".32"/><circle cx="697" cy="997" r="3" fill="#9d6818" opacity=".32"/>
    <path d="M105 30H45Q30 30 30 45V105M645 30H705Q720 30 720 45V105M105 1020H45Q30 1020 30 1005V945M645 1020H705Q720 1020 720 1005V945" fill="none" stroke="#b58025" stroke-width="5"/><g fill="#c81f3d"><text x="70" y="102" font-family="Georgia,DejaVu Serif,serif" font-size="58" font-weight="700" text-anchor="middle">K</text><text x="70" y="166" font-family="DejaVu Sans" font-size="58" text-anchor="middle">♥</text></g><g transform="rotate(180 375 525)" fill="#c81f3d"><text x="70" y="102" font-family="Georgia,DejaVu Serif,serif" font-size="58" font-weight="700" text-anchor="middle">K</text><text x="70" y="166" font-family="DejaVu Sans" font-size="58" text-anchor="middle">♥</text></g><rect x="136" y="160" width="478" height="730" rx="18" fill="#f7edd5" stroke="#b58025" stroke-width="5" filter="url(#shadow)"/>
    <path d="M146 525H604" stroke="#17233d" stroke-width="3"/><path d="M166 525L220 486L275 525L330 486L375 525L420 486L475 525L530 486L584 525" fill="none" stroke="#b58025" stroke-width="4"/>
    <g clip-path="url(#topcourt)"><g id="person"><path d="M240 690Q255 570 326 492L375 530L424 492Q495 570 510 690Z" fill="#1d3b6d" stroke="#17233d" stroke-width="5"/>
    <path d="M272 680L294 552L375 585L456 552L478 680" fill="#c81f3d" stroke="#17233d" stroke-width="4"/>
    <path d="M318 492L375 530L432 492L419 568L375 595L331 568Z" fill="#f3d36c" stroke="#6f4912" stroke-width="4"/>
    <path d="M300 620L375 668L450 620" fill="none" stroke="#e9c75f" stroke-width="10"/>
    <text x="375" y="670" text-anchor="middle" font-family="DejaVu Sans" font-size="66" fill="#fff7dc">♥</text><path d="M486 405L518 695" stroke="#b58025" stroke-width="15"/><path d="M478 418H531M496 374H512" stroke="#17233d" stroke-width="10"/><path d="M493 360L505 322L517 360Z" fill="#c81f3d" stroke="#17233d" stroke-width="4"/>
    <text x="207" y="515" font-family="Georgia,serif" font-size="20" font-weight="700" fill="#6d5423" transform="rotate(-90 207 515)">KING</text><ellipse cx="375" cy="397" rx="82" ry="96" fill="#efc39e" stroke="#6e4328" stroke-width="5"/><circle cx="316" cy="362" r="18" fill="#51331e" stroke="#302013" stroke-width="2"/><circle cx="310" cy="397" r="18" fill="#51331e" stroke="#302013" stroke-width="2"/><circle cx="319" cy="430" r="18" fill="#51331e" stroke="#302013" stroke-width="2"/><circle cx="434" cy="362" r="18" fill="#51331e" stroke="#302013" stroke-width="2"/><circle cx="440" cy="397" r="18" fill="#51331e" stroke="#302013" stroke-width="2"/><circle cx="431" cy="430" r="18" fill="#51331e" stroke="#302013" stroke-width="2"/>
    <path d="M328 376Q350 361 366 377M384 377Q402 361 422 376" fill="none" stroke="#3a251a" stroke-width="5" stroke-linecap="round"/>
    <circle cx="351" cy="386" r="5" fill="#17233d"/><circle cx="399" cy="386" r="5" fill="#17233d"/><path d="M375 385L363 423L382 425" fill="none" stroke="#9e6849" stroke-width="4"/>
    <path d="M351 445Q375 457 399 445" fill="none" stroke="#9e493f" stroke-width="4"/><path d="M326 418Q375 490 424 418L414 480Q375 518 336 480Z" fill="#51331e" stroke="#302013" stroke-width="3"/><path d="M340 458Q375 477 410 458" fill="none" stroke="#e6b36f" stroke-width="4"/><path d="M292 330L305 245L348 300L375 220L402 300L445 245L458 330Z" fill="#e8bc48" stroke="#6f4912" stroke-width="5"/><circle cx="305" cy="248" r="10" fill="#c81f3d"/><circle cx="375" cy="224" r="10" fill="#1d3b6d"/><circle cx="445" cy="248" r="10" fill="#c81f3d"/><path d="M304 330H456V356H304Z" fill="#d79a28" stroke="#6f4912" stroke-width="4"/></g></g><g clip-path="url(#bottomcourt)"><g transform="rotate(180 375 525)"><g id="person"><path d="M240 690Q255 570 326 492L375 530L424 492Q495 570 510 690Z" fill="#1d3b6d" stroke="#17233d" stroke-width="5"/>
    <path d="M272 680L294 552L375 585L456 552L478 680" fill="#c81f3d" stroke="#17233d" stroke-width="4"/>
    <path d="M318 492L375 530L432 492L419 568L375 595L331 568Z" fill="#f3d36c" stroke="#6f4912" stroke-width="4"/>
    <path d="M300 620L375 668L450 620" fill="none" stroke="#e9c75f" stroke-width="10"/>
    <text x="375" y="670" text-anchor="middle" font-family="DejaVu Sans" font-size="66" fill="#fff7dc">♥</text><path d="M486 405L518 695" stroke="#b58025" stroke-width="15"/><path d="M478 418H531M496 374H512" stroke="#17233d" stroke-width="10"/><path d="M493 360L505 322L517 360Z" fill="#c81f3d" stroke="#17233d" stroke-width="4"/>
    <text x="207" y="515" font-family="Georgia,serif" font-size="20" font-weight="700" fill="#6d5423" transform="rotate(-90 207 515)">KING</text><ellipse cx="375" cy="397" rx="82" ry="96" fill="#efc39e" stroke="#6e4328" stroke-width="5"/><circle cx="316" cy="362" r="18" fill="#51331e" stroke="#302013" stroke-width="2"/><circle cx="310" cy="397" r="18" fill="#51331e" stroke="#302013" stroke-width="2"/><circle cx="319" cy="430" r="18" fill="#51331e" stroke="#302013" stroke-width="2"/><circle cx="434" cy="362" r="18" fill="#51331e" stroke="#302013" stroke-width="2"/><circle cx="440" cy="397" r="18" fill="#51331e" stroke="#302013" stroke-width="2"/><circle cx="431" cy="430" r="18" fill="#51331e" stroke="#302013" stroke-width="2"/>
    <path d="M328 376Q350 361 366 377M384 377Q402 361 422 376" fill="none" stroke="#3a251a" stroke-width="5" stroke-linecap="round"/>
    <circle cx="351" cy="386" r="5" fill="#17233d"/><circle cx="399" cy="386" r="5" fill="#17233d"/><path d="M375 385L363 423L382 425" fill="none" stroke="#9e6849" stroke-width="4"/>
    <path d="M351 445Q375 457 399 445" fill="none" stroke="#9e493f" stroke-width="4"/><path d="M326 418Q375 490 424 418L414 480Q375 518 336 480Z" fill="#51331e" stroke="#302013" stroke-width="3"/><path d="M340 458Q375 477 410 458" fill="none" stroke="#e6b36f" stroke-width="4"/><path d="M292 330L305 245L348 300L375 220L402 300L445 245L458 330Z" fill="#e8bc48" stroke="#6f4912" stroke-width="5"/><circle cx="305" cy="248" r="10" fill="#c81f3d"/><circle cx="375" cy="224" r="10" fill="#1d3b6d"/><circle cx="445" cy="248" r="10" fill="#c81f3d"/><path d="M304 330H456V356H304Z" fill="#d79a28" stroke="#6f4912" stroke-width="4"/></g></g></g>
    <circle cx="375" cy="525" r="34" fill="url(#paper)" stroke="#b58025" stroke-width="4"/><text x="375" y="543" text-anchor="middle" font-family="DejaVu Sans" font-size="48" fill="#c81f3d">♥</text></svg>